<svg width="40" height="40" viewBox="0 0 40 40" fill="none" xmlns="http://www.w3.org/2000/svg">
<rect width="40" height="40" rx="20" fill="#FF3E79"/>
<path d="M26.2061 12.2568C26.5966 11.8663 27.2306 11.8663 27.6211 12.2568L27.7432 12.3789C28.1336 12.7693 28.1333 13.4024 27.7432 13.793L21.5362 19.999L27.7432 26.206C28.1337 26.5966 28.1337 27.2306 27.7432 27.6211L27.6211 27.7431C27.2306 28.1337 26.5966 28.1337 26.2061 27.7431L19.9991 21.5361L13.793 27.7431C13.4025 28.1333 12.7693 28.1335 12.379 27.7431L12.2569 27.6211C11.8664 27.2306 11.8664 26.5966 12.2569 26.206L18.4629 19.999L12.2569 13.793C11.8667 13.4024 11.8665 12.7693 12.2569 12.3789L12.379 12.2568C12.7694 11.8664 13.4025 11.8666 13.793 12.2568L19.9991 18.4629L26.2061 12.2568Z" fill="white"/>
</svg>
